<svg xmlns="http://www.w3.org/2000/svg" version="1.1" xmlns:xlink="http://www.w3.org/1999/xlink" xmlns:svgjs="http://svgjs.dev/svgjs" viewBox="0 0 800 400"><path d="M20.986547470092773,229.59640502929688C26.965620358784992,216.44244639078775,40.41853300730388,133.33333841959634,56.860984802246094,150.6726531982422C73.30343659718831,168.01196797688803,96.472349802653,340.5082295735677,119.6412582397461,333.6322937011719C142.8101666768392,326.75635782877606,176.59192530314127,123.76681518554688,195.8744354248047,109.41703796386719C215.1569455464681,95.0672607421875,222.18235524495444,236.17339070638022,235.33631896972656,247.53363037109375C248.4902826944987,258.8938700358073,260.74739329020184,167.56352742513022,274.7982177734375,177.57847595214844C288.84904225667316,187.59342447916666,293.3333435058594,322.4215278625488,319.6412658691406,307.6233215332031C345.9491882324219,292.8251152038574,406.63678487141925,99.70104726155598,432.645751953125,88.78923797607422C458.65471903483075,77.87742869059245,458.9536641438802,229.74588902791342,475.695068359375,242.1524658203125C492.4364725748698,254.55904261271158,508.1315511067708,154.11061096191406,533.0941772460938,163.22869873046875C558.0568033854166,172.34678649902344,587.8026631673177,299.2526219685872,625.4708251953125,296.8609924316406C663.1389872233073,294.46936289469403,731.1509806315104,163.82660675048828,759.1031494140625,148.87892150878906C787.0553181966146,133.93123626708984,787.5037231445312,197.4588877360026,793.183837890625,207.1748809814453" fill="none" stroke-width="25" stroke="url(&quot;#SvgjsLinearGradient1014&quot;)" stroke-linecap="round" stroke-opacity="0.69"></path><defs><linearGradient id="SvgjsLinearGradient1014"><stop stop-color="hsl(37, 99%, 67%)" offset="0"></stop><stop stop-color="hsl(316, 73%, 52%)" offset="1"></stop></linearGradient></defs></svg>